# xmcd
#
# Track frame offsets: 
#        150
#        10216
#        30025
#        47122
#        68527
#        88973
#        103895
#        120024
#        123233
#        134193
#        154162
#        168497
#        186809
#        198272
#        213145
#        231807
#        247751
#        262983
#        263357
#        263731
#        264105
#
# Disc length: 3737 seconds
#
# Revision: 1
# Processed by: cddbd v1.5.2PL0 Copyright (c) Steve Scherf et al.
# Submitted via: ExactAudioCopy v0.99pb5
#
DISCID=0b0e9715
DTITLE=Карандаш - Американщина
DYEAR=2006
DGENRE=Rap
TTITLE0=Intro
TTITLE1=Прёт! (feat. Спарцмен)
TTITLE2=Американщина
TTITLE3=Переходы
TTITLE4=Не пытайся быть мной (feat. Варчун, Dime)
TTITLE5=Баста, карапузики!
TTITLE6=Моё оружие
TTITLE7=Просто любите музыку (skit)
TTITLE8=Критики
TTITLE9=Шевели задом (feat. Варчун)
TTITLE10=Я не знаю (feat. Dr. N-Drey)
TTITLE11=Хорошо (feat. Яна Крошкина)
TTITLE12=Я в клубе
TTITLE13=Части тела
TTITLE14=Пиздатый бит
TTITLE15=Прости мне
TTITLE16=Последний лист (feat. Ленин)
TTITLE17=Пустой
TTITLE18=Пустой
TTITLE19=Пустой
TTITLE20=Разговор
EXTD=
EXTT0=
EXTT1=
EXTT2=
EXTT3=
EXTT4=
EXTT5=
EXTT6=
EXTT7=
EXTT8=
EXTT9=
EXTT10=
EXTT11=
EXTT12=
EXTT13=
EXTT14=
EXTT15=
EXTT16=
EXTT17=
EXTT18=
EXTT19=
EXTT20=
PLAYORDER=
